<svg xmlns="http://www.w3.org/2000/svg" xmlns:xlink="http://www.w3.org/1999/xlink" width="167" height="126.29" viewBox="0 0 167 126.29">
  <defs>
    <clipPath id="clip-path">
      <circle id="Ellipse_130" data-name="Ellipse 130" cx="42.343" cy="42.343" r="42.343" fill="none"/>
    </clipPath>
  </defs>
  <g id="Group_14281" data-name="Group 14281" transform="translate(-2.515 627)">
    <g id="Group_13231" data-name="Group 13231" transform="translate(44.141 -627)">
      <circle id="Ellipse_131" data-name="Ellipse 131" cx="42.343" cy="42.343" r="42.343" transform="translate(84.687) rotate(90)" fill="#ffde59"/>
      <g id="Group_13227" data-name="Group 13227" transform="translate(84.695) rotate(90)">
        <circle id="Ellipse_129" data-name="Ellipse 129" cx="42.343" cy="42.343" r="42.343" transform="translate(0)" fill="#ffde59"/>
        <g id="Group_13226" data-name="Group 13226" transform="translate(0 0.008)">
          <g id="Group_13225" data-name="Group 13225" clip-path="url(#clip-path)">
            <g id="Group_13224" data-name="Group 13224" transform="translate(7.964 9.077)">
              <g id="Group_13222" data-name="Group 13222">
                <path id="Path_33881" data-name="Path 33881" d="M4.083,66.477,1.409,63.589a40.6,40.6,0,0,0,8.42-11.023A40.713,40.713,0,0,0,13.546,25.6,40.6,40.6,0,0,0,0,3L2.548,0A44.552,44.552,0,0,1,17.4,24.8a44.658,44.658,0,0,1-4.084,29.584A44.523,44.523,0,0,1,4.083,66.477Z" fill="#fff"/>
              </g>
              <g id="Group_13223" data-name="Group 13223" transform="translate(53.268)">
                <path id="Path_33882" data-name="Path 33882" d="M14.237,66.477A44.3,44.3,0,0,1,15.772,0L18.32,3a40.4,40.4,0,0,0-1.409,60.59Z" fill="#fff"/>
              </g>
            </g>
          </g>
        </g>
      </g>
      <path id="Path_33885" data-name="Path 33885" d="M109.81-866.287a35.405,35.405,0,0,1,4.979-3.857,52.567,52.567,0,0,1,5.9-3.309,40.078,40.078,0,0,1,18.232-3.854,41.808,41.808,0,0,1,20.358,5.363,50.347,50.347,0,0,1,6.936,5.039,34.169,34.169,0,0,1-7.619,5.977c-9.836,5.794-28.038,11.715-47.97-4.527Z" transform="translate(-96.06 877.416)" fill="#ff873d"/>
      <path id="Path_33886" data-name="Path 33886" d="M109.81-870.2a27.773,27.773,0,0,1,4.9-3.627,57.687,57.687,0,0,1,5.974-3.154c4.648-2.006,9.5-3.1,16.623-3.042a43.324,43.324,0,0,1,14.615,3.042,42.645,42.645,0,0,1,11.224,7.3,34.925,34.925,0,0,1-6.893,4.561c-9.338,4.944-26.742,9.484-45.663-4.374Z" transform="translate(-94.472 945.191)" fill="#ff873d"/>
    </g>
    <g id="Group_13233" data-name="Group 13233" transform="translate(2.515 -557.254)">
      <path id="Path_33887" data-name="Path 33887" d="M26.85-123.252l.215.054a12.039,12.039,0,0,1,2.334,1.8,20.148,20.148,0,0,1,1.824,2.1,9.462,9.462,0,0,1,1.314,2.394q2.039,4.95-3.541,11.084a25.04,25.04,0,0,1-5.311,4.412,5.959,5.959,0,0,0,1.422.78,15.085,15.085,0,0,1,1.9.915,3.45,3.45,0,0,1,1.609,2.529,9.578,9.578,0,0,1-.188,4.17,17.14,17.14,0,0,1-2.039,4.762,17.044,17.044,0,0,1-3.836,4.385A16.217,16.217,0,0,1,10.113-80.1a3.1,3.1,0,0,1-1.287-.161q-.268-.161-.429-.269a1.774,1.774,0,0,0-.7-.161,6.381,6.381,0,0,1-3.058,1.345A6.569,6.569,0,0,1,1.4-79.617,5.693,5.693,0,0,1-1.18-81.446a5.219,5.219,0,0,1-1.046-3.39,7.344,7.344,0,0,1,.536-2.206,3.785,3.785,0,0,1-.161-1.184,140.059,140.059,0,0,1,3.433-14.9q3.272-10.277,7.081-15.5a14.1,14.1,0,0,1,8.637-5.7A13.1,13.1,0,0,1,26.85-123.252ZM10.166-85.7a2.676,2.676,0,0,1,1.1-.081,3.292,3.292,0,0,0,1.1-.027,10.281,10.281,0,0,0,4.184-1.937,5.289,5.289,0,0,0,1.77-3.282q.107-1.614-.483-2.071a2.517,2.517,0,0,0-1.583-.457,9.308,9.308,0,0,0-2.2.3,12.258,12.258,0,0,1-2.334.35v.108q-.268,1.076-.536,1.883t-.483,1.56A30.113,30.113,0,0,0,9.952-85.7Zm9.978-27.978q-1.609-.215-3.487,2.529a13.877,13.877,0,0,0-1.824,5.219q1.127-.484,2.226-.834a19.84,19.84,0,0,0,2.065-.78,7.769,7.769,0,0,0,3.38-2.475q1.18-1.4.751-2.367a5.6,5.6,0,0,0-2.092-1.56A1.154,1.154,0,0,1,20.144-113.675Zm-.8-.215h0ZM42.032-89.463q3.111.323,4.64.323a37.33,37.33,0,0,0,4.64-.43q.966.323,1.127.807a2.344,2.344,0,0,1,.107,1,3.084,3.084,0,0,0,.054,1q.107.484,1.019.807.483.161.3.942a4.7,4.7,0,0,1-.885,1.695A9.483,9.483,0,0,1,48.845-80.1a38.157,38.157,0,0,1-6.062,1.13,40.234,40.234,0,0,1-7.94-.269q-4.721-.861-4.56-3.928a56.805,56.805,0,0,1,4.935-22.705q1.609-3.712,3.648-7.8a5.161,5.161,0,0,0,.51-1.937q.08-1.076.134-2.1a6.954,6.954,0,0,1,.322-1.829,1.77,1.77,0,0,1,1.127-1.13q11.158-4.466,17.649-3.443a3.069,3.069,0,0,1,2.977,1.533,4.367,4.367,0,0,1,.161,3.309,8.292,8.292,0,0,1-2.2,3.443,7.227,7.227,0,0,1-4.1,1.991,39.253,39.253,0,0,0-3.862,1.238,4.168,4.168,0,0,0-1.931,1.722q-.751,1.184-1.395,2.26a7.62,7.62,0,0,0-.912,2.314l-.215,1.184a4.439,4.439,0,0,0,2.495.3q1.475-.188,2.736-.377a6.01,6.01,0,0,1,2.039-.027q.778.161.322,1.587a12.837,12.837,0,0,1-1.663,3.2,6.831,6.831,0,0,1-3.407,2.583q-1.395.269-1.9.4t-.778.188q-.376.054-2.146.161a26.3,26.3,0,0,0-3.058,6.672Q41.549-89.463,42.032-89.463Zm45.653-29.7a4.358,4.358,0,0,1,2.307,2.852q-1.073,6.026-1.931,11.971T86.4-94.386q-.8,4.008-1.1,6t-.671,3.982l-.322,1.13q-.107.592-.215,1.1t-.215,1.1A5.133,5.133,0,0,1,79.8-79.348a6.394,6.394,0,0,1-4.345-1.4q-.966-.753-.322-3.174a11.987,11.987,0,0,0,.349-2.5q.08-1.533.188-2.556v-.108a11.738,11.738,0,0,0-2.9,1.533q-1.287.942-1.609,1.184a2.385,2.385,0,0,1-.858.377,8.223,8.223,0,0,1-.966.188,2.818,2.818,0,0,0-1.395.323q-3.111,5.6-5.579,6.241A6.815,6.815,0,0,1,59.252-79a3.392,3.392,0,0,1-2.468-1.856q-1.717-1.614.858-8.824,1.395-3.82,4-9.174t5.016-9.335a68.728,68.728,0,0,1,11.427-14.419q1.019-.43,2.2-1a6.036,6.036,0,0,1,2.334-.619,7.941,7.941,0,0,1,2.387.269,5.941,5.941,0,0,1,2.092.968Q89.079-121.477,87.684-119.163ZM76.2-105.013q-1.127,3.228-2.253,5.945T72.02-94.306l4.238-.161q.429-3.443.966-6.833t1.019-6.779ZM74.756-94.252a10.578,10.578,0,0,0,1.5-.108v-.054q-.7.054-1.287.108T74.756-94.252Zm37.606-15.227q0-1.614-1.127-1.614a3.054,3.054,0,0,0-1.019.215q-.59.215-1.127.377A10.966,10.966,0,0,0,106-108.16q-1.1,1.264-2.226,2.825A19.274,19.274,0,0,0,101.847-102a22.774,22.774,0,0,0-1.234,3.336q-1.556,5.757,1.18,7.748a3.882,3.882,0,0,0,2.387.78,3.979,3.979,0,0,0,2.039-.511q.778-.484,1.529-.915a5.569,5.569,0,0,1,1.744-.619,5.238,5.238,0,0,1,2.468.269q1.475.457,1.583,1.211a5.7,5.7,0,0,1,0,1.56,5.719,5.719,0,0,0-.027,1.453q.08.646,1.153.807,1.019,1.291-1.287,3.121-.59.484-1.127.915a20.267,20.267,0,0,1-9.817,3.282,16.616,16.616,0,0,1-6.974-1.184q-5.525-2.1-6.223-9.416a29.362,29.362,0,0,1,1.717-14.043,36.268,36.268,0,0,1,6.652-11.353q4.023-4.789,7.94-6.241a17.653,17.653,0,0,1,10.085-1.883q5.74.753,7.51,4.9t-.59,9.954A6.21,6.21,0,0,1,119.5-105.6a8.456,8.456,0,0,1-4.184,1.076q-2.253,0-2.9-1.426A5.109,5.109,0,0,1,112.361-109.478Zm19.473,15.065-2.575,6.564q-.536,1.507-.966,3.121a25.09,25.09,0,0,1-.912,2.825,4.157,4.157,0,0,1-1.475,1.91,7.274,7.274,0,0,1-2.226,1.049,8.074,8.074,0,0,1-2.548.3,6.665,6.665,0,0,1-2.334-.484,2.708,2.708,0,0,1-1.609-3.551q2.468-10.868,4.64-17.433t3.594-10.33q1.422-3.766,2.977-7.963a4.811,4.811,0,0,1,1.287-2.8,9.648,9.648,0,0,1,2.656-2.045,12.176,12.176,0,0,1,3.192-1.157,7.206,7.206,0,0,1,2.951-.081,2.892,2.892,0,0,1,1.9,1.184,3.044,3.044,0,0,1,.08,2.636q-1.931,4.95-2.736,6.995t-1.448,3.659l-1.5,3.551a11.244,11.244,0,0,0,2.843-.323,13.684,13.684,0,0,1,4.506-.484,2.864,2.864,0,0,1,.268-.915,120.045,120.045,0,0,1,3.38-12.052q1.341-4.52,6.92-4.735a4.641,4.641,0,0,1,3.326,1.076q1.234,1.13.322,3.067-4.935,13.881-6.974,21.9-2.307,9.254-3.031,12.483a11.32,11.32,0,0,1-1.261,3.82,3.252,3.252,0,0,1-1.1.834q-.563.242-1.1.457a1.7,1.7,0,0,0-.858,1.076h-.161a3.065,3.065,0,0,1-1.878,1.507,6.585,6.585,0,0,1-2.924.4,4,4,0,0,1-2.468-1.076,2.8,2.8,0,0,1-.51-2.879,41.953,41.953,0,0,1,1.77-6.591q1.234-3.524,1.958-5.515t1.207-3.712a4.4,4.4,0,0,1-.831.323,5.474,5.474,0,0,0-.992.4,10.141,10.141,0,0,1-1.207.511q-.617.215-1.207.43a16.046,16.046,0,0,0-2.468,1.184Zm6.062-3.6a4.235,4.235,0,0,0,.536-.161Q138.111-98.072,137.9-98.018Z" transform="translate(2.226 124.974)" fill="#fff"/>
      <path id="Path_33888" data-name="Path 33888" d="M50.388-172.466H38.969l4.7-12.494a2.725,2.725,0,0,0-1.881-3.224A2.575,2.575,0,0,0,38.3-186.84l-5.374,14.375H19.489a2.6,2.6,0,0,0-2.418,2.821,2.69,2.69,0,0,0,2.418,2.821H30.908l-4.971,13.3a2.614,2.614,0,0,0,1.746,3.359,2.684,2.684,0,0,0,3.493-1.343l5.777-15.315H50.388a2.69,2.69,0,0,0,2.418-2.821A2.6,2.6,0,0,0,50.388-172.466Z" transform="translate(114.194 206.522)" fill="#ffde59"/>
    </g>
  </g>
</svg>
