<svg xmlns="http://www.w3.org/2000/svg" xmlns:xlink="http://www.w3.org/1999/xlink" width="200" height="182.907" viewBox="0 0 200 182.907">
  <defs>
    <clipPath id="clip-path">
      <circle id="Ellipse_130" data-name="Ellipse 130" cx="50.711" cy="50.711" r="50.711" fill="none"/>
    </clipPath>
  </defs>
  <g id="Group_13232" data-name="Group 13232" transform="translate(-2.515 627)">
    <g id="Group_13231" data-name="Group 13231" transform="translate(52.366 -627)">
      <circle id="Ellipse_131" data-name="Ellipse 131" cx="50.711" cy="50.711" r="50.711" transform="translate(101.421) rotate(90)" fill="#ffde59"/>
      <g id="Group_13227" data-name="Group 13227" transform="translate(101.432) rotate(90)">
        <circle id="Ellipse_129" data-name="Ellipse 129" cx="50.711" cy="50.711" r="50.711" transform="translate(0)" fill="#ffde59"/>
        <g id="Group_13226" data-name="Group 13226" transform="translate(0 0.01)">
          <g id="Group_13225" data-name="Group 13225" clip-path="url(#clip-path)">
            <g id="Group_13224" data-name="Group 13224" transform="translate(9.537 10.871)">
              <g id="Group_13222" data-name="Group 13222">
                <path id="Path_33881" data-name="Path 33881" d="M4.89,79.613l-3.2-3.458a48.622,48.622,0,0,0,10.084-13.2,48.759,48.759,0,0,0,4.451-32.3A48.624,48.624,0,0,0,0,3.592L3.051,0A53.355,53.355,0,0,1,20.84,29.705a53.483,53.483,0,0,1-4.89,35.43A53.321,53.321,0,0,1,4.89,79.613Z" fill="#fff"/>
              </g>
              <g id="Group_13223" data-name="Group 13223" transform="translate(63.794)">
                <path id="Path_33882" data-name="Path 33882" d="M17.05,79.613A53.051,53.051,0,0,1,18.889,0L21.94,3.592a48.387,48.387,0,0,0-1.688,72.562Z" fill="#fff"/>
              </g>
            </g>
          </g>
        </g>
      </g>
      <path id="Path_33885" data-name="Path 33885" d="M109.81-864.109a42.4,42.4,0,0,1,5.963-4.619,62.958,62.958,0,0,1,7.072-3.963,48,48,0,0,1,21.835-4.616,50.07,50.07,0,0,1,24.38,6.422,60.3,60.3,0,0,1,8.306,6.035,40.92,40.92,0,0,1-9.125,7.158c-11.78,6.939-33.579,14.03-57.449-5.422Z" transform="translate(-93.343 877.438)" fill="#ff873d"/>
      <path id="Path_33886" data-name="Path 33886" d="M109.81-868.261a33.262,33.262,0,0,1,5.866-4.344,69.072,69.072,0,0,1,7.155-3.777c5.566-2.4,11.372-3.714,19.908-3.643a51.884,51.884,0,0,1,17.5,3.643,51.069,51.069,0,0,1,13.443,8.747,41.825,41.825,0,0,1-8.256,5.462c-11.183,5.921-32.026,11.358-54.687-5.239Z" transform="translate(-91.441 958.068)" fill="#ff873d"/>
    </g>
    <g id="Group_13233" data-name="Group 13233" transform="translate(2.515 -543.472)">
      <path id="Path_33887" data-name="Path 33887" d="M32.6-122.912l.257.064a14.418,14.418,0,0,1,2.795,2.159,24.129,24.129,0,0,1,2.184,2.513,11.332,11.332,0,0,1,1.574,2.867q2.441,5.928-4.24,13.274a29.988,29.988,0,0,1-6.36,5.284,7.137,7.137,0,0,0,1.7.934,18.066,18.066,0,0,1,2.281,1.1,4.132,4.132,0,0,1,1.927,3.029,11.471,11.471,0,0,1-.225,4.994A20.527,20.527,0,0,1,32.049-81a20.412,20.412,0,0,1-4.594,5.252,19.422,19.422,0,0,1-14.905,4.511,3.71,3.71,0,0,1-1.542-.193q-.321-.193-.514-.322a2.125,2.125,0,0,0-.835-.193A7.642,7.642,0,0,1,6-70.332a7.867,7.867,0,0,1-3.887-.322A6.818,6.818,0,0,1-.973-72.845,6.25,6.25,0,0,1-2.226-76.9a8.8,8.8,0,0,1,.642-2.642,4.533,4.533,0,0,1-.193-1.418A167.735,167.735,0,0,1,2.335-98.813q3.919-12.307,8.481-18.558A16.89,16.89,0,0,1,21.16-124.2,15.683,15.683,0,0,1,32.6-122.912ZM12.615-77.936a3.2,3.2,0,0,1,1.317-.1,3.943,3.943,0,0,0,1.317-.032,12.313,12.313,0,0,0,5.011-2.32,6.334,6.334,0,0,0,2.12-3.931q.128-1.933-.578-2.481a3.014,3.014,0,0,0-1.9-.548,11.147,11.147,0,0,0-2.634.354,14.68,14.68,0,0,1-2.795.419v.129q-.321,1.289-.642,2.255t-.578,1.869a36.063,36.063,0,0,0-.9,4.382Zm11.95-33.507q-1.927-.258-4.176,3.029a16.619,16.619,0,0,0-2.184,6.25q1.349-.58,2.666-1a23.761,23.761,0,0,0,2.473-.934,9.3,9.3,0,0,0,4.048-2.964q1.413-1.675.9-2.835a6.7,6.7,0,0,0-2.506-1.869A1.383,1.383,0,0,1,24.565-111.442ZM23.6-111.7h0ZM50.777-82.446q3.726.387,5.557.387a44.708,44.708,0,0,0,5.557-.515q1.156.387,1.349.967a2.808,2.808,0,0,1,.128,1.192,3.693,3.693,0,0,0,.064,1.192q.128.58,1.221.967.578.193.353,1.128a5.632,5.632,0,0,1-1.06,2.03,11.357,11.357,0,0,1-5.011,3.866,45.7,45.7,0,0,1-7.26,1.353,48.184,48.184,0,0,1-9.508-.322q-5.654-1.031-5.461-4.7A68.03,68.03,0,0,1,42.618-102.1q1.927-4.446,4.369-9.343a6.181,6.181,0,0,0,.61-2.32q.1-1.289.161-2.513a8.328,8.328,0,0,1,.385-2.191,2.119,2.119,0,0,1,1.349-1.353q13.363-5.348,21.137-4.124,2.7.064,3.566,1.836a5.23,5.23,0,0,1,.193,3.963,9.931,9.931,0,0,1-2.634,4.124,8.655,8.655,0,0,1-4.915,2.384,47.01,47.01,0,0,0-4.626,1.482,4.992,4.992,0,0,0-2.313,2.062q-.9,1.418-1.67,2.706a9.126,9.126,0,0,0-1.092,2.771l-.257,1.418a5.317,5.317,0,0,0,2.987.354q1.767-.226,3.277-.451a7.2,7.2,0,0,1,2.441-.032q.932.193.385,1.9a15.374,15.374,0,0,1-1.992,3.834A8.18,8.18,0,0,1,59.9-92.5q-1.67.322-2.281.483t-.932.226q-.45.064-2.57.193a31.491,31.491,0,0,0-3.662,7.99Q50.2-82.446,50.777-82.446Zm54.674-35.569a5.22,5.22,0,0,1,2.763,3.415q-1.285,7.217-2.313,14.337t-1.992,11.921q-.964,4.8-1.317,7.185t-.8,4.768l-.385,1.353q-.128.709-.257,1.321t-.257,1.321a6.147,6.147,0,0,1-4.883,2.062,7.658,7.658,0,0,1-5.2-1.675q-1.156-.9-.385-3.8a14.356,14.356,0,0,0,.418-3q.1-1.836.225-3.061V-82a14.058,14.058,0,0,0-3.469,1.836q-1.542,1.128-1.927,1.418a2.857,2.857,0,0,1-1.028.451,9.847,9.847,0,0,1-1.156.226,3.375,3.375,0,0,0-1.67.387q-3.726,6.7-6.682,7.475a8.161,8.161,0,0,1-3.726.29,4.062,4.062,0,0,1-2.955-2.223Q66.389-74.069,69.473-82.7q1.67-4.575,4.786-10.986t6.007-11.18a82.309,82.309,0,0,1,13.684-17.269q1.221-.515,2.634-1.192a7.229,7.229,0,0,1,2.795-.741,9.51,9.51,0,0,1,2.859.322,7.115,7.115,0,0,1,2.506,1.16Q107.121-120.786,105.451-118.015ZM91.7-101.068Q90.353-97.2,89-93.948t-2.313,5.7l5.075-.193q.514-4.124,1.156-8.183t1.221-8.119ZM89.968-88.181a12.668,12.668,0,0,0,1.8-.129v-.064q-.835.064-1.542.129T89.968-88.181ZM135-106.416q0-1.933-1.349-1.933a3.658,3.658,0,0,0-1.221.258q-.707.258-1.349.451a13.133,13.133,0,0,0-3.694,2.8q-1.317,1.514-2.666,3.383a23.082,23.082,0,0,0-2.313,4,27.274,27.274,0,0,0-1.478,4q-1.863,6.895,1.413,9.279a4.649,4.649,0,0,0,2.859.934,4.765,4.765,0,0,0,2.441-.612q.932-.58,1.831-1.1a6.67,6.67,0,0,1,2.088-.741,6.273,6.273,0,0,1,2.955.322q1.767.548,1.9,1.45a6.824,6.824,0,0,1,0,1.869,6.849,6.849,0,0,0-.032,1.74q.1.773,1.381.967,1.221,1.546-1.542,3.737-.707.58-1.349,1.1a24.272,24.272,0,0,1-11.757,3.931,19.9,19.9,0,0,1-8.352-1.418q-6.617-2.513-7.453-11.276A35.164,35.164,0,0,1,109.37-100.1a43.435,43.435,0,0,1,7.967-13.6q4.818-5.735,9.508-7.475a21.142,21.142,0,0,1,12.078-2.255q6.874.9,8.994,5.864t-.707,11.921a7.437,7.437,0,0,1-3.662,3.866,10.127,10.127,0,0,1-5.011,1.289q-2.7,0-3.469-1.708A6.118,6.118,0,0,1,135-106.416Zm23.321,18.042-3.084,7.861q-.642,1.8-1.156,3.737a30.05,30.05,0,0,1-1.092,3.383,4.978,4.978,0,0,1-1.767,2.287,8.712,8.712,0,0,1-2.666,1.257,9.669,9.669,0,0,1-3.052.354,7.982,7.982,0,0,1-2.795-.58,3.243,3.243,0,0,1-1.927-4.253q2.955-13.016,5.557-20.877t4.3-12.372q1.7-4.511,3.566-9.537a5.762,5.762,0,0,1,1.542-3.351,11.554,11.554,0,0,1,3.18-2.449,14.582,14.582,0,0,1,3.823-1.385,8.631,8.631,0,0,1,3.534-.1,3.464,3.464,0,0,1,2.281,1.418,3.646,3.646,0,0,1,.1,3.157q-2.313,5.928-3.277,8.377t-1.735,4.382l-1.8,4.253a13.466,13.466,0,0,0,3.405-.387,16.388,16.388,0,0,1,5.4-.58,3.43,3.43,0,0,1,.321-1.1A143.766,143.766,0,0,1,175.03-119.3q1.606-5.413,8.288-5.67a5.558,5.558,0,0,1,3.983,1.289q1.478,1.353.385,3.673-5.911,16.625-8.352,26.225Q176.572-82.7,175.7-78.838t-1.51,4.575a3.9,3.9,0,0,1-1.317,1q-.675.29-1.317.548a2.042,2.042,0,0,0-1.028,1.289h-.193a3.671,3.671,0,0,1-2.249,1.8,7.886,7.886,0,0,1-3.5.483,4.79,4.79,0,0,1-2.955-1.289q-1.189-1.128-.61-3.447a50.241,50.241,0,0,1,2.12-7.893q1.478-4.221,2.345-6.6t1.446-4.446a5.264,5.264,0,0,1-1,.387,6.556,6.556,0,0,0-1.189.483,12.144,12.144,0,0,1-1.446.612q-.739.258-1.446.515a19.218,19.218,0,0,0-2.955,1.418Zm7.26-4.317a5.074,5.074,0,0,0,.642-.193Q165.843-92.756,165.586-92.692Z" transform="translate(2.226 124.974)" fill="#fff"/>
      <path id="Path_33888" data-name="Path 33888" d="M56.971-169.319H43.3l5.631-14.963a3.263,3.263,0,0,0-2.252-3.861c-1.77-.644-3.7,0-4.183,1.609l-6.436,17.215H19.967a3.119,3.119,0,0,0-2.9,3.379,3.221,3.221,0,0,0,2.9,3.379H33.642L27.69-146.634a3.13,3.13,0,0,0,2.092,4.022,3.215,3.215,0,0,0,4.183-1.609l6.918-18.341H56.971a3.221,3.221,0,0,0,2.9-3.379A3.119,3.119,0,0,0,56.971-169.319Z" transform="translate(140.133 210.105)" fill="#ffde59"/>
    </g>
    <text id="find_friends_and_keep_playing" data-name="find friends and keep playing" transform="translate(28.082 -447.093)" fill="#fff" font-size="12" font-family="GlacialIndifference-Regular, Glacial Indifference"><tspan x="0" y="0">find friends and keep playing</tspan></text>
  </g>
</svg>
